# xmcd
# Track frame offsets:
# 150
# 12652
# 24822
# 37597
# 50425
# 62522
# 75882
# 88642
# 100112
# 113900
# 127867
# 138652
# 151642
# 165005
# 176085
# 188635
# 203195
# 216125
# 229007
# 242830
# 255592
# 267532
# 278980
# 291282
# 302542
# 313535
# 325547
# 336340
# 347467
#
# Disc length: 4769 seconds
# Revision: 3
# Processed by: cddbd v1.5.1PL0 Copyright (c) Steve Scherf et al.
# Submitted via: VisiTrax 2.9.10.228 - For more info visit www.synapsa.com
#
DISCID=7b129f1d
DTITLE=Smith Carl - Satisfaction Guaranteed Disc 1
DYEAR=1996
DGENRE=Country
TTITLE0=Guilty Conscience 1950
TTITLE1=I Just Dropped In To Say Goodbye 1975
TTITLE2=My Lonely Heart's Runnin' Wild 1975
TTITLE3=Washing My Dreams In Tears 1950
TTITLE4=I Betcha My Heart I Love You 1950
TTITLE5=I Overlooked An Orchid While Searching For A Rose 1950
TTITLE6=This Side Of Heaven 1950
TTITLE7=I Won't Be At Home 1950
TTITLE8=Mr. Moon 1950
TTITLE9=If Teardrops Were Pennies 1951
TTITLE10=There's Nothing As Sweet As My Baby 1951
TTITLE11=Let's Live A Little 1951
TTITLE12=Me And My Broken Heart 1951
TTITLE13=(When You Feel Like You're In Love) Don't Just Stand There 1952
TTITLE14=Please Come Back Home 1956
TTITLE15=There'll Never Be Another Mary 1975
TTITLE16=My Lonely Heart's Runnin' Wild 1952
TTITLE17=Let Old Mother Nature Have Her Way 1951
TTITLE18=The Little Girl In My Home Town 1952
TTITLE19=I Just Dropped In To Say Goodbye 1975
TTITLE20=Are You Teasing Me 1952
TTITLE21=It's A Lovely, Lovely World 1952
TTITLE22=That's The Kind Of Love I'm Looking For 1952
TTITLE23=The Nail - Scarred Hand 1953
TTITLE24=We Shall Meet Some Day 1953
TTITLE25=How About You 1953
TTITLE26=The Blood That Stained The Old Rugged Cross 1952
TTITLE27=Gethsemane 1952
TTITLE28=Softly And Tenderly 1952
EXTD=Corrected Track And Artist
EXTT0=
EXTT1=
EXTT2=
EXTT3=
EXTT4=
EXTT5=
EXTT6=
EXTT7=
EXTT8=
EXTT9=
EXTT10=
EXTT11=
EXTT12=
EXTT13=
EXTT14=
EXTT15=
EXTT16=
EXTT17=
EXTT18=
EXTT19=
EXTT20=
EXTT21=
EXTT22=
EXTT23=
EXTT24=
EXTT25=
EXTT26=
EXTT27=
EXTT28=
PLAYORDER=
